<?xml version="1.0" standalone="no"?>
<!DOCTYPE svg PUBLIC "-//W3C//DTD SVG 20010904//EN"
 "http://www.w3.org/TR/2001/REC-SVG-20010904/DTD/svg10.dtd">
<svg version="1.0" xmlns="http://www.w3.org/2000/svg"
 width="512.000000pt" height="512.000000pt" viewBox="0 0 512.000000 512.000000"
 preserveAspectRatio="xMidYMid meet">

<g transform="translate(0.000000,512.000000) scale(0.100000,-0.100000)"
fill="#000000" stroke="none">
<path d="M1555 4176 c-37 -16 -92 -77 -102 -114 -11 -36 -10 -1226 0 -1274 l8
-38 -321 0 c-365 0 -374 -2 -427 -82 l-28 -42 -3 -648 -3 -648 -222 0 c-160 0
-226 -3 -235 -12 -15 -15 -15 -61 0 -76 17 -17 1019 -17 1036 0 15 15 15 61 0
76 -9 9 -77 12 -245 12 l-233 0 2 641 3 641 28 24 c28 24 31 24 223 24 l194 0
0 -218 c0 -244 4 -262 62 -262 24 0 51 17 119 75 49 41 91 75 95 75 3 0 45
-34 94 -76 77 -65 93 -75 122 -72 53 5 58 25 58 266 l0 212 220 0 220 0 0
-665 0 -665 -380 0 -380 0 -16 -25 c-15 -23 -15 -27 0 -50 l16 -25 1434 0
c1375 0 1434 1 1449 18 36 39 5 82 -58 82 l-39 0 42 36 c62 53 131 155 159
237 71 203 21 419 -132 573 -108 109 -237 164 -382 164 l-73 0 0 137 c0 161
-15 206 -83 251 l-40 27 -335 3 c-310 3 -333 4 -325 20 13 26 16 1225 3 1272
-13 49 -63 108 -107 126 -47 20 -1373 20 -1418 0z m445 -305 c0 -196 2 -221
18 -241 11 -14 29 -22 46 -22 29 0 34 2 146 96 l70 58 83 -70 c97 -82 123 -96
158 -78 l24 12 3 232 2 232 190 0 c201 0 230 -5 249 -47 15 -33 16 -1216 0
-1245 -25 -47 -36 -48 -714 -48 -692 0 -694 0 -715 55 -6 16 -10 248 -10 611
0 619 1 636 47 663 11 6 92 11 211 11 l192 0 0 -219z m448 52 c1 -90 0 -163
-3 -163 -4 0 -38 27 -77 60 -42 35 -81 60 -95 60 -13 0 -49 -23 -85 -53 -35
-29 -69 -56 -75 -61 -10 -6 -13 29 -13 159 l0 165 173 -2 172 -3 3 -162z
m-768 -1434 l0 -171 -64 55 c-34 31 -75 61 -89 68 -29 13 -46 6 -127 -61 -25
-20 -51 -40 -57 -44 -10 -6 -13 29 -13 158 l0 166 175 0 175 0 0 -171z m1082
-48 c3 -199 5 -221 22 -240 35 -38 67 -27 163 54 48 41 91 75 94 75 3 0 45
-34 94 -75 93 -78 122 -89 161 -61 18 13 19 30 22 240 l3 226 190 0 191 0 29
-29 29 -29 0 -142 c0 -125 -2 -141 -17 -146 -74 -24 -154 -74 -212 -133 -112
-112 -164 -239 -164 -396 0 -156 52 -283 161 -392 l63 -63 -633 2 -633 3 -3
663 -2 662 219 0 220 0 3 -219z m448 48 l0 -171 -62 55 c-109 94 -118 95 -215
9 l-63 -54 0 166 0 166 170 0 170 0 0 -171z m801 -263 c239 -51 401 -283 360
-515 -41 -227 -223 -381 -452 -381 -227 0 -413 158 -452 385 -39 226 121 461
346 510 81 18 118 18 198 1z"/>
<path d="M1703 3321 c-24 -28 -43 -57 -43 -66 0 -26 29 -29 55 -5 l24 23 3
-129 3 -129 25 0 25 0 3 124 c3 120 3 123 22 106 23 -21 54 -16 58 9 5 24 -85
116 -113 116 -12 0 -37 -20 -62 -49z"/>
<path d="M1987 3315 c-31 -35 -45 -59 -41 -69 8 -21 42 -20 66 1 17 15 18 12
18 -98 0 -121 6 -143 36 -137 17 3 19 15 22 126 1 67 5 122 9 122 4 0 14 -7
24 -16 22 -20 49 -12 49 14 0 24 -91 112 -115 111 -11 0 -41 -24 -68 -54z"/>
<path d="M1684 2945 c-4 -8 -4 -22 0 -30 5 -13 37 -15 233 -13 l228 3 0 25 0
25 -228 3 c-196 2 -228 0 -233 -13z"/>
<path d="M2470 1895 c-46 -46 -53 -58 -44 -73 17 -26 44 -26 62 0 16 22 17 17
22 -107 l5 -130 25 0 25 0 3 124 c3 120 3 123 22 106 24 -21 54 -16 58 11 2
14 -14 37 -52 72 -30 29 -59 52 -63 52 -5 0 -33 -25 -63 -55z"/>
<path d="M2763 1896 c-39 -37 -54 -58 -50 -70 8 -20 40 -21 57 -1 7 8 16 15
21 15 5 0 9 -56 9 -124 0 -105 2 -125 16 -130 36 -14 44 11 44 137 l0 120 25
-23 c20 -19 27 -21 40 -10 8 7 15 18 15 25 0 12 -103 115 -115 115 -4 0 -32
-24 -62 -54z"/>
<path d="M2450 1515 c-10 -12 -10 -18 0 -30 11 -13 47 -15 239 -13 l226 3 0
25 0 25 -226 3 c-192 2 -228 0 -239 -13z"/>
<path d="M3990 1855 l-146 -145 -53 54 c-69 70 -93 83 -126 68 -19 -9 -25 -19
-25 -45 0 -29 13 -46 94 -125 51 -51 101 -92 112 -92 10 0 94 76 191 172 140
139 173 177 173 200 0 27 -31 58 -59 58 -8 0 -80 -65 -161 -145z"/>
<path d="M612 3997 c-6 -6 -14 -25 -17 -40 -7 -26 -11 -28 -40 -23 -23 5 -38
2 -49 -9 -30 -31 -16 -56 38 -69 26 -6 28 -10 22 -40 -5 -24 -2 -39 9 -50 19
-19 21 -19 44 -6 10 5 21 24 25 41 6 30 8 31 40 26 26 -4 39 -1 52 14 23 26 9
50 -36 63 -30 9 -32 12 -27 43 8 49 -34 83 -61 50z"/>
<path d="M4387 3808 c-14 -7 -18 -20 -15 -51 2 -39 1 -42 -26 -47 -33 -6 -52
-30 -43 -54 5 -11 19 -16 51 -16 41 0 45 -2 48 -26 4 -35 31 -53 56 -38 12 9
16 23 15 53 -2 37 1 41 22 41 26 0 55 24 55 44 0 25 -27 37 -64 30 -34 -6 -36
-5 -42 25 -8 37 -32 54 -57 39z"/>
<path d="M4590 2145 c-7 -8 -10 -31 -8 -50 4 -32 1 -36 -21 -41 -49 -11 -52
-13 -49 -41 3 -26 7 -28 50 -31 42 -3 47 -6 50 -29 4 -34 32 -52 56 -37 12 8
16 23 15 51 -1 36 1 40 29 49 70 21 58 81 -14 70 -37 -6 -39 -5 -45 24 -3 17
-14 35 -24 40 -23 13 -24 13 -39 -5z"/>
<path d="M932 1896 c-29 -30 -52 -61 -50 -68 7 -20 48 -22 69 -2 19 17 19 15
19 -102 0 -126 6 -148 36 -142 17 3 19 15 22 126 1 67 5 122 9 122 4 0 14 -7
24 -16 22 -20 49 -12 49 14 0 18 -99 122 -116 122 -4 0 -32 -25 -62 -54z"/>
<path d="M1227 1892 c-26 -26 -47 -56 -47 -65 0 -28 29 -32 55 -7 l24 23 3
-129 3 -129 25 0 25 0 3 122 3 122 29 -17 c27 -16 30 -16 46 0 16 15 13 20
-36 72 -29 31 -60 56 -69 56 -9 0 -38 -22 -64 -48z"/>
<path d="M914 1515 c-4 -8 -4 -22 0 -30 5 -13 38 -15 238 -13 l233 3 0 25 0
25 -233 3 c-200 2 -233 0 -238 -13z"/>
<path d="M4580 1310 c-11 -11 -20 -27 -20 -35 0 -8 9 -24 20 -35 18 -18 33
-20 156 -20 74 0 144 5 155 10 13 8 19 21 19 46 0 47 -22 54 -181 54 -116 0
-131 -2 -149 -20z"/>
<path d="M2982 1167 c-6 -6 -13 -24 -17 -39 -6 -24 -10 -26 -41 -21 -35 6 -64
-9 -64 -33 0 -21 30 -44 57 -44 23 0 25 -3 20 -32 -6 -43 8 -68 38 -68 19 0
26 8 36 39 11 37 13 39 45 34 35 -6 64 9 64 33 0 21 -30 44 -57 44 -24 0 -25
2 -20 37 4 21 2 42 -5 50 -13 17 -42 17 -56 0z"/>
</g>
</svg>
